<?xml version="1.0" encoding="utf-8"?>
<!-- Generator: Adobe Illustrator 25.4.1, SVG Export Plug-In . SVG Version: 6.00 Build 0)  -->
<svg version="1.1" id="Layer_1" xmlns="http://www.w3.org/2000/svg" xmlns:xlink="http://www.w3.org/1999/xlink" x="0px" y="0px"
	 viewBox="0 0 64 64" style="enable-background:new 0 0 64 64;" xml:space="preserve">
<style type="text/css">
	.st0{stroke:#000000;stroke-miterlimit:10;}
	.st1{stroke:#000000;stroke-width:0.5699;stroke-miterlimit:10;}
</style>
<g>
	<g>
		<g>
			<path d="M6.1,36.8c5.8,2,11.9,3.9,18.1,3.8c5.6-0.1,12.4-1.9,15.2-7.2c2.7-5.1,1.4-11.7-4.1-14.2c-5.2-2.4-11.2-0.9-16,1.9
				c-4.8,2.8-8.8,7.7-8.7,13.6c0.1,5.7,3.8,10.5,9.1,12.4c5.6,2,12.5,1.6,18.2,0.2c5-1.3,9.7-4,12.5-8.4c1.8-2.8,2.5-7-0.7-9.1
				c-2.7-1.8-6.2-0.6-7.8,2.2c-1.4,2.6-1.1,6.2,1,8.3c2.6,2.6,6.4,1,8.1-1.7c0.5-0.8,0.4-1.8,0-2.5c0,0,0,0,0,0
				c-0.6-1.2-2.3-1.5-3.4-0.9c-0.5,0.2,0.5-0.2,1-0.2c0.6,0.2,1.2,0.5,1.8,0.7c0,0,0,0,0,0c0.2,0.6,0.5,1.2,0.7,1.8
				c-0.1,0.5-0.1,0.5,0,0.1c-1.6,0-3.2,0-4.8,0c1.4,5.4,8.5,4.7,12.2,2.2c2.6-1.8,0.1-6.1-2.5-4.3c-1,0.7-2.2,1.1-3.2,1.2
				c-0.3,0-0.7,0-1.1,0c0.4,0-0.4-0.1-0.5-0.2c0.2,0.1,0.2,0.1,0-0.1c0.2,0.2,0.2,0.2,0,0c0.1,0.1,0.1,0,0-0.2c-0.6-2.5-4-2.2-4.8,0
				c-0.9,2.6,1.6,4.5,3.9,3.3c-1.1-0.3-2.3-0.6-3.4-0.9c0,0,0,0,0,0c0-0.8,0-1.7,0-2.5c0.5-0.7-0.1,0.1-0.3,0.3
				c-0.1,0.1-0.3,0.1-0.4,0.2c0.4-0.5,0.5,0.8,0.2-0.1c-0.1-0.3-0.3-0.6-0.3-1c0-0.5,0.1-1,0.4-1.4c0-0.1,0.2-0.2,0.3-0.2
				c0,0,0.3-0.2,0.1-0.1c0.2-0.1,0.4,0.3,0.2,0c-0.2-0.3,0,0,0,0c0.1,0.3,0,0.6-0.1,0.9c-0.2,0.8-0.7,1.6-1.3,2.2
				c-1,1.3-2.3,2.4-3.8,3.3c-3.3,2-7.2,2.8-11,3c-3.8,0.2-8.5,0.1-11.8-2.1c-2.8-1.9-4-5.7-3-8.9c1.2-3.7,3.9-6,7.3-7.6
				c2.9-1.5,7-2.4,10-0.8c3.1,1.6,3.1,5.6,1.1,8.2c-2.7,3.4-8.2,3.9-12.3,3.7c-5.1-0.3-10-2-14.8-3.6C4.4,30.9,3.1,35.8,6.1,36.8
				L6.1,36.8z"/>
		</g>
	</g>
</g>
<ellipse class="st0" cx="46.5" cy="34.8" rx="2" ry="2.4"/>
<circle class="st1" cx="21.9" cy="30" r="1.4"/>
</svg>
